# xmcd
#
# Track frame offsets:
#	150
#	13339
#	25542
#	38870
#	49623
#	59533
#	76637
#	89641
#	101188
#	112258
#
# Disc length: 1665
#
# Revision: 3
# Processed by: cddbd v1.5.1PL0 Copyright (c) Steve Scherf et al.
# Submitted via: CDex 1.50beta10
# Normalized: r1:TDELIM( - ),TSWAP
#
DISCID=7f067f0a
DTITLE=country mix - Country Classics Hits of 1970
DYEAR=1970
DGENRE=Country
TTITLE0=Lynn Anderson - Rose Garden
TTITLE1=Jack Blanchard and Misty Morgan - Tennessee Bird Walk
TTITLE2=Dave Dudley - The Pool Shark
TTITLE3=David Houston - I Do My Swinging At Home
TTITLE4=Kenny Price - Biloxi
TTITLE5=Ray Price - For The Good Times
TTITLE6=Connie Smith - I Never Once Stopped Loving You
TTITLE7=Sammi Smith - Help Me Make It Through The Night
TTITLE8=Billie Walker - When A Man Loves A Woman (the way that  I love you)
TTITLE9=Jim Ed Brown - Morning
EXTD=YEAR: 1970
EXTT0=
EXTT1=
EXTT2=
EXTT3=
EXTT4=
EXTT5=
EXTT6=
EXTT7=
EXTT8=
EXTT9=
PLAYORDER=
